<svg xmlns="http://www.w3.org/2000/svg" viewBox="0 0 24 30" fill="none" x="0px" y="0px"><path fill-rule="evenodd" clip-rule="evenodd" d="M14.1513 5.25718C14.2395 5.09845 14.4068 5 14.5884 5H14.7534C15.0733 5 15.3109 5.29621 15.2415 5.60847L14.7823 7.6746C14.5742 8.61137 15.287 9.5 16.2466 9.5H18.3672C18.668 9.5 18.9007 9.76359 18.8634 10.062L18.1134 16.062C18.0821 16.3122 17.8694 16.5 17.6172 16.5H10V9.5H10.9116C11.4563 9.5 11.9583 9.20466 12.2228 8.72846L14.1513 5.25718ZM9.61805 8.5H10.9116C11.0932 8.5 11.2605 8.40155 11.3487 8.24282L13.2772 4.77154C13.5417 4.29534 14.0437 4 14.5884 4H14.7534C15.713 4 16.4258 4.88863 16.2177 5.8254L15.7585 7.89154C15.6891 8.20379 15.9267 8.5 16.2466 8.5H18.3672C19.2695 8.5 19.9675 9.29077 19.8556 10.1861L19.1056 16.1861C19.0118 16.9367 18.3737 17.5 17.6172 17.5H9.61805C9.34339 17.8069 8.94425 18 8.5 18H5.5C4.67157 18 4 17.3284 4 16.5V9.5C4 8.67157 4.67157 8 5.5 8H8.5C8.94425 8 9.34339 8.19313 9.61805 8.5ZM9 9.5C9 9.22386 8.77614 9 8.5 9H5.5C5.22386 9 5 9.22386 5 9.5V16.5C5 16.7761 5.22386 17 5.5 17H8.5C8.77614 17 9 16.7761 9 16.5V9.5Z" fill="black"/><text x="0" y="39" fill="#000000" font-size="5px" font-weight="bold" font-family="'Helvetica Neue', Helvetica, Arial-Unicode, Arial, Sans-serif">Created by Tadu Puasandi</text><text x="0" y="44" fill="#000000" font-size="5px" font-weight="bold" font-family="'Helvetica Neue', Helvetica, Arial-Unicode, Arial, Sans-serif">from the Noun Project</text></svg>