<?xml version="1.0" encoding="utf-8"?>
<!-- Svg Vector Icons : http://www.onlinewebfonts.com/icon -->
<!DOCTYPE svg PUBLIC "-//W3C//DTD SVG 1.1//EN" "http://www.w3.org/Graphics/SVG/1.1/DTD/svg11.dtd">
<svg version="1.1" xmlns="http://www.w3.org/2000/svg" xmlns:xlink="http://www.w3.org/1999/xlink" x="0px" y="0px" viewBox="0 0 256 256" enable-background="new 0 0 256 256" xml:space="preserve">
<metadata> Svg Vector Icons : http://www.onlinewebfonts.com/icon </metadata>
<g><g><path fill="#000000" d="M238.2,155.8l-18.3-10.6c1.1-5.6,1.7-11.3,1.7-17.2c0-5.9-0.6-11.6-1.7-17.2l18.3-10.6c7.5-4.4,10-14,5.7-21.5l-15.6-27.2c-4.3-7.5-13.9-10.1-21.3-5.8l-18.5,10.7c-8.6-7.4-18.4-13.5-29.3-17.4V25.7c0-8.7-7-15.7-15.6-15.7h-31.2c-8.6,0-15.6,7-15.6,15.7v13.3C85.9,43,76.1,49,67.5,56.4L49,45.7c-7.5-4.3-17-1.8-21.3,5.8L12.1,78.7c-4.3,7.6-1.7,17.2,5.7,21.5l18.3,10.6c-1,5.6-1.7,11.3-1.7,17.2c0,5.9,0.7,11.6,1.7,17.2l-18.3,10.6c-7.5,4.4-10,14-5.7,21.5l15.6,27.2c4.3,7.5,13.9,10.1,21.3,5.8l18.5-10.7c8.6,7.4,18.4,13.4,29.3,17.3v13.3c0,8.7,7,15.8,15.6,15.8h31.2c8.6,0,15.6-7.1,15.6-15.8v-13.3c10.9-3.9,20.7-9.9,29.3-17.3l18.5,10.7c7.5,4.3,17.1,1.8,21.3-5.8l15.6-27.2C248.2,169.8,245.6,160.1,238.2,155.8z M128,167.3c-21.6,0-39-17.6-39-39.3c0-21.7,17.5-39.3,39-39.3c21.5,0,39,17.6,39,39.3C167,149.7,149.5,167.3,128,167.3z"/><path fill="#000000" d="M103.2,128c0,13.7,11.1,24.8,24.8,24.8c13.7,0,24.8-11.1,24.8-24.8c0-13.7-11.1-24.8-24.8-24.8C114.3,103.2,103.2,114.3,103.2,128L103.2,128z"/></g></g>
</svg>